<svg xmlns="http://www.w3.org/2000/svg" viewBox="0 0 20.26 37.59"><defs><style>.ea5a5c80-3b59-447b-ab46-cc1d729ebebe{fill:#868686;fill-rule:evenodd;}</style></defs><g id="bba92447-22a9-4830-9f5d-44ceafd54e01"><g id="439efbec-2634-4ce7-afee-cae800ad9447"><polygon points="9.01 0 11.26 0 11.26 33.08 9.01 33.08 9.01 0 9.01 0" class="ea5a5c80-3b59-447b-ab46-cc1d729ebebe"/><polygon points="13.51 7.93 15.76 7.93 15.76 33.08 13.51 33.08 13.51 7.93 13.51 7.93" class="ea5a5c80-3b59-447b-ab46-cc1d729ebebe"/><polygon points="4.5 7.93 6.75 7.93 6.75 33.08 4.5 33.08 4.5 7.93 4.5 7.93" class="ea5a5c80-3b59-447b-ab46-cc1d729ebebe"/><polygon points="6.75 3.43 6.75 5.68 2.25 5.68 2.25 35.34 18.01 35.34 18.01 5.68 13.51 5.68 13.51 3.43 20.26 3.43 20.26 37.59 0 37.59 0 3.43 6.75 3.43" class="ea5a5c80-3b59-447b-ab46-cc1d729ebebe"/></g></g></svg>